<?xml version="1.0" standalone="no"?>
<!DOCTYPE svg PUBLIC "-//W3C//DTD SVG 20010904//EN"
 "http://www.w3.org/TR/2001/REC-SVG-20010904/DTD/svg10.dtd">
<svg version="1.0" xmlns="http://www.w3.org/2000/svg"
 width="136.000000pt" height="183.000000pt" viewBox="0 0 136.000000 183.000000"
 preserveAspectRatio="xMidYMid meet">
<metadata>
Created by potrace 1.10, written by Peter Selinger 2001-2011
</metadata>
<g transform="translate(0.000000,183.000000) scale(0.100000,-0.100000)"
fill="#e7dfdd" stroke="none">
<path d="M1202 1640 c-12 -11 -25 -20 -29 -20 -4 0 -21 -19 -38 -41 -35 -47
-69 -73 -108 -83 -43 -10 -97 -77 -97 -121 0 -24 -30 -76 -40 -70 -4 3 -10 -1
-12 -7 -4 -10 -89 -13 -379 -15 -367 -2 -374 -2 -391 -23 -18 -22 -12 -56 15
-85 6 -7 26 -30 42 -51 30 -38 74 -82 117 -119 12 -11 34 -36 48 -54 26 -36
62 -73 124 -128 20 -18 34 -33 31 -33 -4 0 1 -7 9 -16 9 -9 27 -30 41 -48 25
-33 25 -33 25 -264 0 -157 -3 -232 -11 -232 -5 0 -7 -4 -4 -10 3 -5 -25 -24
-62 -41 -106 -50 -128 -80 -81 -113 33 -24 399 -23 422 0 37 37 17 64 -86 113
l-67 32 -1 249 -1 249 28 29 c43 45 62 70 57 75 -2 2 5 12 16 22 11 10 20 15
20 12 0 -4 17 12 38 35 20 24 49 55 65 69 15 15 27 29 27 31 0 3 33 38 73 79
92 95 137 150 137 168 0 8 -10 25 -21 37 l-22 23 32 36 c19 22 31 47 31 64 0
16 7 34 15 41 8 7 15 18 15 24 0 7 12 23 26 37 32 30 84 106 84 123 0 17 -32
46 -51 46 -9 0 -25 -9 -37 -20z m58 -15 c10 -12 -1 -29 -61 -100 -62 -71 -73
-89 -71 -115 5 -41 -61 -110 -104 -110 -18 0 -34 -8 -41 -20 -12 -18 -9 -19
55 -22 55 -2 67 -6 67 -20 0 -9 -83 -105 -185 -213 -102 -109 -206 -220 -232
-248 l-47 -52 0 -265 0 -265 95 -44 c52 -25 93 -49 91 -55 -5 -15 -426 -15
-429 -1 -2 6 40 32 92 58 l95 48 0 257 c0 295 13 253 -124 397 -364 383 -355
373 -341 390 11 13 73 15 395 15 l383 0 32 40 c18 23 29 47 26 55 -15 40 54
125 102 125 25 0 42 14 102 80 40 44 76 80 80 80 4 0 13 -7 20 -15z"/>
<path d="M1027 1412 c-30 -31 -33 -44 -14 -61 15 -12 27 -4 61 36 15 19 16 25
6 38 -17 21 -22 19 -53 -13z"/>
<path d="M210 1203 c0 -4 12 -20 27 -35 l27 -28 261 0 261 0 27 28 c15 15 27
31 27 35 0 4 -142 7 -315 7 -173 0 -315 -3 -315 -7z m555 -33 c-8 -14 -475
-13 -475 1 0 5 98 9 241 9 162 0 238 -3 234 -10z"/>
<path d="M890 1175 l-34 -35 50 0 c42 0 55 5 77 28 15 15 27 31 27 35 0 4 -19
7 -43 7 -36 0 -49 -6 -77 -35z"/>
<path d="M339 1053 c22 -27 92 -102 156 -168 l114 -120 155 160 c85 88 155
163 156 168 0 4 -140 7 -311 7 l-311 0 41 -47z m497 0 c0 -10 -10 -26 -21 -36
-11 -10 -31 -28 -45 -40 -14 -12 -45 -48 -69 -79 -24 -32 -47 -55 -52 -52 -5
3 -12 -2 -15 -10 -4 -11 -14 -14 -33 -10 -28 7 -54 24 -47 31 2 2 -8 17 -22
33 -15 15 -36 39 -47 52 -12 12 -37 36 -57 52 -20 16 -38 40 -41 53 l-4 23
227 0 c211 0 228 -1 226 -17z"/>
<path d="M578 148 c-44 -15 -33 -23 30 -21 72 3 70 2 52 12 -29 16 -55 19 -82
9z"/>
</g>
</svg>
