<?xml version="1.0" standalone="no"?>
<!DOCTYPE svg PUBLIC "-//W3C//DTD SVG 20010904//EN"
 "http://www.w3.org/TR/2001/REC-SVG-20010904/DTD/svg10.dtd">
<svg version="1.0" xmlns="http://www.w3.org/2000/svg"
 width="300.000000pt" height="220.000000pt" viewBox="0 0 300.000000 220.000000"
 preserveAspectRatio="xMidYMid meet">
<metadata>
Created by potrace 1.10, written by Peter Selinger 2001-2011
</metadata>
<g transform="translate(0.000000,220.000000) scale(0.100000,-0.100000)"
fill="#000000" stroke="none">
<path d="M90 1535 l0 -575 85 0 85 0 0 315 0 315 1208 -2 1207 -3 3 -313 2
-313 83 3 82 3 0 570 0 570 -1377 3 -1378 2 0 -575z m2588 313 l3 -98 -1211 0
-1210 0 0 100 0 100 1208 -2 1207 -3 3 -97z"/>
<path d="M520 1845 l0 -45 65 0 65 0 0 45 0 45 -65 0 -65 0 0 -45z"/>
<path d="M670 1845 l0 -45 70 0 70 0 0 45 0 45 -70 0 -70 0 0 -45z"/>
<path d="M830 1845 l0 -45 65 0 65 0 0 45 0 45 -65 0 -65 0 0 -45z"/>
<path d="M990 1845 l0 -45 65 0 65 0 0 45 0 45 -65 0 -65 0 0 -45z"/>
<path d="M1170 1845 l0 -45 625 0 625 0 0 45 0 45 -625 0 -625 0 0 -45z"/>
<path d="M92 478 l3 -383 90 0 90 0 3 148 3 147 134 0 134 0 3 -147 3 -148 90
0 90 0 3 383 2 382 -95 0 -95 0 0 -150 0 -150 -135 0 -135 0 0 150 0 150 -95
0 -95 0 2 -382z"/>
<path d="M860 775 l0 -85 110 0 110 0 2 -297 3 -298 90 0 90 0 3 298 2 297
110 0 110 0 0 85 0 85 -315 0 -315 0 0 -85z"/>
<path d="M1590 775 l0 -85 110 0 110 0 0 -300 0 -300 90 0 90 0 0 300 0 300
115 0 115 0 0 85 0 85 -315 0 -315 0 0 -85z"/>
<path d="M2345 848 c-3 -7 -4 -180 -3 -383 l3 -370 93 -3 92 -3 0 131 0 130
98 0 c86 0 105 3 150 26 84 42 132 127 132 233 -1 95 -51 179 -135 224 -36 19
-59 22 -232 25 -155 3 -194 1 -198 -10z m350 -183 c33 -32 34 -89 3 -122 -19
-20 -31 -23 -95 -23 l-73 0 0 85 0 85 70 0 c62 0 74 -3 95 -25z"/>
</g>
</svg>
