<?xml version="1.0" standalone="no"?>
<!DOCTYPE svg PUBLIC "-//W3C//DTD SVG 20010904//EN"
 "http://www.w3.org/TR/2001/REC-SVG-20010904/DTD/svg10.dtd">
<svg version="1.0" xmlns="http://www.w3.org/2000/svg"
 width="300.000000pt" height="220.000000pt" viewBox="0 0 300.000000 220.000000"
 preserveAspectRatio="xMidYMid meet">
<metadata>
Created by potrace 1.10, written by Peter Selinger 2001-2011
</metadata>
<g transform="translate(0.000000,220.000000) scale(0.100000,-0.100000)"
fill="#000000" stroke="none">
<path d="M90 1535 l0 -575 85 0 85 0 0 315 0 315 1210 0 1211 0 -3 -315 -3
-315 88 0 87 0 0 575 0 575 -1380 0 -1380 0 0 -575z m2728 0 l0 -546 -57 3
-56 3 -2 294 c-2 242 -5 296 -17 310 -13 15 -121 16 -1216 15 -1110 0 -1202
-2 -1217 -17 -19 -18 -20 -38 -22 -409 l-1 -198 -55 0 -55 0 0 545 0 545 1349
0 1349 0 0 -545z"/>
<path d="M283 1972 c-39 -6 -47 -28 -46 -128 1 -58 6 -100 13 -109 11 -13 173
-15 1216 -15 1080 0 1204 2 1218 16 19 19 19 17 17 124 -1 53 -7 90 -15 98
-10 10 -248 13 -1197 15 -651 1 -1194 1 -1206 -1z m2397 -122 l0 -100 -1210 0
-1210 0 0 100 0 100 1210 0 1210 0 0 -100z"/>
<path d="M519 1898 c0 -2 -2 -24 -4 -50 l-2 -48 68 0 69 0 0 50 0 50 -65 0
c-36 0 -65 -1 -66 -2z m99 -50 c3 -15 -4 -18 -32 -18 -34 0 -47 15 -29 34 13
13 58 1 61 -16z"/>
<path d="M670 1850 l0 -50 70 0 70 0 0 50 0 50 -70 0 -70 0 0 -50z m101 12 c3
-1 6 -9 6 -17 0 -11 -11 -15 -39 -15 -35 0 -50 15 -33 32 5 4 49 4 66 0z"/>
<path d="M830 1850 l0 -50 68 0 67 0 -1 47 -1 48 -67 3 -66 3 0 -51z m108 -2
c3 -15 -4 -18 -37 -18 -39 0 -53 14 -34 34 14 14 68 1 71 -16z"/>
<path d="M990 1850 l0 -50 65 0 65 0 0 50 0 50 -65 0 -65 0 0 -50z m100 1 c0
-14 -9 -20 -35 -23 -30 -3 -35 -1 -35 17 0 17 7 21 35 23 29 2 35 -1 35 -17z"/>
<path d="M1170 1850 l0 -50 625 0 625 0 0 50 0 50 -625 0 -625 0 0 -50z m1220
-1 c0 -18 -9 -19 -227 -21 -689 -5 -963 -1 -963 17 0 20 36 21 658 23 521 1
532 1 532 -19z"/>
<path d="M90 475 l0 -385 95 0 95 0 0 150 0 150 135 0 135 0 0 -150 0 -150 95
0 95 0 0 385 0 385 -95 0 -95 0 0 -150 0 -150 -135 0 -135 0 0 150 0 150 -95
0 -95 0 0 -385z m157 221 c3 -172 -3 -166 166 -166 174 0 167 -7 167 167 l0
134 63 -3 62 -3 2 -345 c1 -217 -2 -347 -8 -351 -5 -3 -34 -7 -64 -8 l-55 -2
0 132 c0 176 7 169 -166 169 -107 0 -136 -3 -148 -16 -13 -12 -16 -40 -16
-144 0 -93 -3 -129 -12 -132 -7 -3 -37 -6 -65 -7 l-53 -2 0 356 0 356 63 -3
62 -3 2 -129z"/>
<path d="M855 775 l0 -85 113 0 112 0 0 -300 0 -300 95 0 95 0 0 300 0 300
110 0 110 0 0 85 0 85 -317 0 -318 0 0 -85z m605 -1 c0 -61 11 -56 -127 -58
-98 -2 -94 11 -93 -298 0 -147 -3 -273 -6 -282 -5 -12 -20 -16 -65 -16 l-59 0
0 282 c1 329 6 312 -98 314 -140 3 -128 -2 -131 51 -1 29 3 49 11 55 7 4 138
7 291 7 l277 -2 0 -53z"/>
<path d="M1580 775 l0 -85 115 0 116 0 -1 -297 -1 -298 90 -3 91 -3 0 301 0
300 115 0 115 0 0 85 0 85 -320 0 -320 0 0 -85z m610 -1 l0 -54 -65 -1 c-115
-2 -124 -4 -140 -20 -14 -13 -17 -53 -19 -255 -2 -131 -4 -258 -5 -281 l-1
-43 -59 0 c-38 0 -60 4 -63 13 -3 6 -5 133 -5 280 -1 326 7 307 -128 307 l-92
0 -1 46 c-1 26 1 50 3 54 2 4 133 7 290 8 l285 1 0 -55z"/>
<path d="M2340 476 l0 -386 95 0 95 0 0 130 0 130 98 0 c86 0 105 3 150 26 84
42 132 127 132 234 0 96 -49 178 -134 223 -37 20 -58 22 -238 25 l-198 4 0
-386z m434 326 c50 -30 61 -41 87 -91 26 -51 28 -155 3 -204 -53 -103 -98
-128 -228 -129 -121 0 -136 -9 -134 -85 0 -32 0 -84 -1 -116 l-1 -58 -62 3
-63 3 -2 353 -3 354 183 -4 c168 -3 185 -5 221 -26z"/>
<path d="M2514 699 c-12 -14 -16 -37 -15 -94 2 -110 6 -115 99 -115 88 0 111
11 136 65 32 67 -13 153 -82 156 -15 1 -48 2 -74 3 -35 2 -52 -2 -64 -15z
m180 -34 c32 -30 35 -81 6 -118 -18 -23 -29 -26 -95 -29 l-75 -3 0 88 0 87 69
0 c58 0 72 -3 95 -25z"/>
</g>
</svg>
