<?xml version="1.0" standalone="no"?>
<!DOCTYPE svg PUBLIC "-//W3C//DTD SVG 20010904//EN"
 "http://www.w3.org/TR/2001/REC-SVG-20010904/DTD/svg10.dtd">
<svg version="1.0" xmlns="http://www.w3.org/2000/svg"
 width="900.000000pt" height="543.000000pt" viewBox="0 0 900.000000 543.000000"
 preserveAspectRatio="xMidYMid meet">
<metadata>
Created by potrace 1.10, written by Peter Selinger 2001-2011
</metadata>
<g transform="translate(0.000000,543.000000) scale(0.100000,-0.100000)"
fill="#1f1f1f" stroke="none">
<path d="M585 5072 c-16 -11 -37 -27 -45 -37 -13 -16 -15 -253 -15 -1995 0
-1964 0 -1978 20 -2000 11 -13 38 -31 60 -41 38 -18 94 -19 1123 -19 l1082 0
0 -58 c0 -33 -7 -81 -15 -108 -8 -27 -15 -68 -15 -91 0 -23 -6 -62 -14 -85 -8
-24 -16 -73 -18 -110 -5 -78 -22 -105 -77 -114 -20 -3 -49 -10 -66 -15 -16 -6
-48 -12 -70 -15 -48 -6 -58 -14 -53 -45 l3 -24 1010 -3 c928 -2 1011 -1 1022
14 21 29 -1 54 -50 54 -23 1 -53 7 -67 15 -14 8 -41 15 -60 15 -57 1 -84 31
-91 104 -4 33 -11 86 -17 116 -32 159 -53 323 -43 339 5 8 112 11 392 9 l384
-3 3 -317 c2 -317 2 -318 25 -332 19 -13 182 -15 1197 -17 666 -1 1187 3 1204
8 58 18 56 -52 56 1599 0 1653 3 1560 -58 1597 -27 15 -69 17 -460 17 -383 0
-431 2 -436 16 -3 9 -6 325 -6 702 0 706 -2 735 -40 788 -8 11 -26 28 -40 37
-23 16 -211 17 -2910 17 -2780 0 -2886 -1 -2915 -18z m5555 -301 c7 -14 9
-220 8 -628 l-3 -608 -555 -5 c-569 -5 -587 -6 -612 -44 -4 -6 -8 -391 -8
-857 0 -644 -3 -848 -12 -857 -9 -9 -479 -12 -2054 -12 -1844 0 -2044 2 -2058
16 -14 14 -16 163 -16 1496 0 1364 1 1483 17 1500 16 17 111 18 2649 18 2600
0 2633 0 2644 -19z m1045 -2811 l0 -1305 -960 -3 c-528 -1 -970 0 -982 3 l-23
5 0 1299 c0 1030 3 1300 13 1304 6 3 449 5 982 4 l970 -2 0 -1305z m-3649
-463 c17 -7 43 -22 59 -33 25 -19 29 -29 33 -83 4 -51 1 -66 -18 -94 -24 -34
-78 -67 -111 -67 -32 0 -96 37 -119 70 -33 46 -36 92 -11 133 12 19 27 38 34
41 6 3 26 15 42 25 35 23 49 24 91 8z m2718 -958 c47 -37 29 -124 -30 -135
-45 -8 -69 2 -93 38 -15 25 -17 37 -9 53 34 65 84 82 132 44z"/>
<path d="M7731 1791 c-17 -4 -28 -17 -33 -38 -5 -18 -7 -343 -6 -722 2 -550 6
-693 16 -703 10 -10 89 -13 363 -13 336 0 351 1 365 19 12 17 14 131 14 718
l0 699 -25 24 -24 25 -323 -1 c-178 -1 -334 -4 -347 -8z m640 -223 c5 -7 9
-70 9 -139 0 -69 3 -288 7 -485 l6 -360 -23 -22 c-23 -21 -30 -22 -291 -22
-150 0 -279 4 -293 10 l-26 10 2 507 3 507 23 6 c13 3 147 4 299 3 218 -1 278
-4 284 -15z m-278 -1079 c23 -13 56 -49 57 -62 0 -4 -10 -21 -22 -37 -25 -35
-64 -40 -103 -14 -36 23 -33 65 6 98 35 30 34 30 62 15z"/>
</g>
</svg>
