<?xml version="1.0" standalone="no"?>
<!DOCTYPE svg PUBLIC "-//W3C//DTD SVG 20010904//EN"
 "http://www.w3.org/TR/2001/REC-SVG-20010904/DTD/svg10.dtd">
<svg version="1.0" xmlns="http://www.w3.org/2000/svg"
 width="460.000000pt" height="306.000000pt" viewBox="0 0 825.000000 549.000000"
 preserveAspectRatio="xMidYMid meet">
<metadata>
Created by potrace 1.10, written by Peter Selinger 2001-2011
</metadata>
<g transform="translate(0.000000,549.000000) scale(0.100000,-0.100000)"
fill="#e7dfdd" stroke="none">
<path d="M5175 4673 c-124 -20 -259 -99 -336 -196 -36 -44 -69 -103 -69 -122
0 -3 25 -5 57 -5 l56 0 64 70 c72 77 145 119 248 140 146 30 316 -31 416 -152
83 -98 104 -160 104 -298 -1 -98 -3 -110 -34 -174 -39 -82 -124 -172 -191
-203 -119 -55 -123 -56 -237 -49 -59 3 -117 6 -127 6 -27 1 -77 -50 -74 -74 2
-13 13 -22 33 -26 17 -4 40 -12 52 -18 38 -21 224 -15 295 9 108 36 172 76
245 152 110 116 153 224 153 384 -1 185 -50 295 -194 435 -78 75 -192 117
-335 123 -53 2 -109 1 -126 -2z"/>
<path d="M2432 4163 c-7 -3 -19 -17 -26 -32 -22 -41 -1 -76 121 -204 117 -123
278 -295 643 -686 129 -139 253 -271 415 -444 60 -64 117 -132 127 -149 16
-30 17 -81 17 -598 1 -589 0 -605 -43 -688 -19 -37 -114 -124 -172 -158 -24
-14 -68 -34 -97 -44 -78 -28 -248 -60 -314 -60 -32 0 -97 -7 -144 -16 -76 -14
-91 -20 -120 -50 -32 -33 -34 -39 -34 -106 0 -68 1 -71 34 -99 20 -16 52 -31
75 -34 23 -3 451 -5 952 -3 l911 3 34 27 c101 77 57 225 -76 256 -27 7 -106
16 -175 21 -273 21 -424 74 -541 192 -107 108 -99 48 -99 743 l0 606 67 78
c37 42 137 151 223 242 86 91 212 226 281 300 217 234 262 282 359 385 399
425 392 416 388 462 -2 28 -9 41 -28 50 -20 10 -313 13 -1395 12 -753 0 -1376
-3 -1383 -6z m2004 -173 c256 0 344 -3 357 -12 15 -12 -1 -31 -131 -165 -81
-83 -221 -229 -312 -324 -398 -417 -500 -519 -515 -519 -23 0 -1015 990 -1015
1013 0 20 6 20 638 14 350 -4 790 -7 978 -7z"/>
<path d="M3255 3789 c-16 -25 19 -66 222 -259 118 -113 222 -212 231 -221 34
-33 95 -69 119 -69 42 0 99 37 184 122 46 46 160 156 253 245 120 115 167 166
163 177 -6 14 -67 16 -586 16 -397 0 -582 -3 -586 -11z"/>
</g>
</svg>
