<?xml version="1.0" standalone="no"?>
<!DOCTYPE svg PUBLIC "-//W3C//DTD SVG 20010904//EN"
 "http://www.w3.org/TR/2001/REC-SVG-20010904/DTD/svg10.dtd">
<svg version="1.0" xmlns="http://www.w3.org/2000/svg"
 width="261.000000pt" height="290.000000pt" viewBox="0 0 369.000000 408.000000"
 preserveAspectRatio="xMidYMid meet">
<metadata>
Created by potrace 1.10, written by Peter Selinger 2001-2011
</metadata>
<g transform="translate(0.000000,408.000000) scale(0.100000,-0.100000)"
fill="#e7dfdd" stroke="none">
<path d="M2925 3953 c-90 -14 -203 -67 -272 -128 -51 -45 -116 -133 -128 -172
-6 -22 -4 -23 50 -23 l56 0 72 74 c134 137 289 176 467 116 77 -26 138 -68
191 -132 83 -98 104 -160 104 -298 -1 -98 -3 -110 -34 -174 -39 -82 -124 -172
-191 -203 -119 -55 -123 -56 -237 -49 -59 3 -117 6 -127 6 -27 1 -77 -50 -74
-75 2 -11 12 -21 23 -23 11 -2 36 -10 56 -18 43 -19 245 -15 299 5 163 61 285
162 344 286 44 92 56 146 56 252 -1 185 -50 295 -194 435 -78 75 -192 117
-335 123 -53 2 -109 1 -126 -2z"/>
<path d="M182 3443 c-7 -3 -19 -17 -26 -32 -22 -41 -1 -76 121 -204 117 -123
278 -295 643 -686 63 -68 158 -169 210 -225 273 -292 316 -340 332 -369 16
-29 17 -84 17 -597 1 -591 0 -601 -44 -687 -19 -39 -111 -124 -171 -159 -24
-14 -68 -34 -97 -44 -78 -28 -248 -60 -314 -60 -32 0 -97 -7 -144 -16 -76 -14
-91 -20 -120 -50 -32 -33 -34 -39 -34 -106 0 -68 1 -71 34 -99 20 -16 52 -31
75 -34 23 -3 451 -5 952 -3 l911 3 34 27 c101 77 57 225 -76 256 -27 7 -106
16 -175 21 -273 21 -424 74 -541 192 -107 108 -99 48 -99 743 l0 605 83 95
c45 52 179 197 297 323 117 125 268 286 335 358 66 71 163 175 215 230 402
427 392 416 388 462 -2 28 -9 41 -28 50 -20 10 -313 13 -1395 12 -753 0 -1376
-3 -1383 -6z m2004 -173 c256 0 344 -3 357 -12 15 -12 -1 -31 -131 -165 -81
-83 -221 -229 -312 -324 -401 -419 -500 -519 -516 -519 -22 0 -1014 991 -1014
1013 0 20 6 20 638 14 350 -4 790 -7 978 -7z"/>
<path d="M1005 3069 c-16 -25 18 -65 206 -244 110 -104 214 -204 232 -221 48
-47 107 -84 134 -84 42 0 99 37 184 122 46 46 160 156 253 245 120 115 167
166 163 177 -6 14 -67 16 -586 16 -397 0 -582 -3 -586 -11z"/>
</g>
</svg>
