<?xml version="1.0" standalone="no"?>
<!DOCTYPE svg PUBLIC "-//W3C//DTD SVG 20010904//EN"
 "http://www.w3.org/TR/2001/REC-SVG-20010904/DTD/svg10.dtd">
<svg version="1.0" xmlns="http://www.w3.org/2000/svg"
 width="300.000000pt" height="300.000000pt" viewBox="0 0 300.000000 300.000000"
 preserveAspectRatio="xMidYMid meet">
<metadata>
Created by potrace 1.10, written by Peter Selinger 2001-2011
</metadata>
<g transform="translate(0.000000,300.000000) scale(0.100000,-0.100000)"
fill="#e7dfdd" stroke="none">
<path d="M1487 2863 c-4 -3 -7 -57 -7 -118 0 -101 2 -114 21 -131 19 -17 20
-26 14 -99 -8 -100 -32 -216 -57 -275 -20 -47 -47 -86 -141 -203 -74 -92 -117
-178 -117 -231 0 -23 7 -86 16 -141 8 -55 21 -143 29 -195 8 -52 20 -168 27
-257 13 -175 3 -398 -28 -658 -8 -72 -18 -183 -21 -248 l-6 -118 29 -30 28
-29 386 0 c428 0 418 -2 441 67 12 38 11 53 -16 293 -9 74 -20 182 -25 240
-11 116 -15 505 -6 572 9 65 47 326 56 383 5 28 9 79 9 115 1 78 -20 119 -126
249 -37 46 -80 101 -95 121 -42 58 -79 197 -85 324 -5 99 -4 110 13 123 16 12
20 30 22 112 6 148 15 141 -187 141 -92 0 -171 -3 -174 -7z m263 -128 l0 -55
-90 0 -90 0 0 55 0 55 90 0 90 0 0 -55z m-36 -191 c3 -26 6 -66 6 -90 l0 -44
-61 0 -62 0 7 53 c3 28 6 69 6 90 l0 37 49 0 48 0 7 -46z m50 -296 c22 -72 40
-102 132 -223 137 -181 138 -184 130 -259 -6 -64 -30 -222 -47 -316 -31 -176
-31 -628 1 -862 29 -213 40 -351 29 -365 -10 -11 -74 -13 -353 -11 l-341 3 0
80 c1 44 9 148 19 230 47 399 48 645 2 960 -47 319 -48 332 -32 367 15 33 76
119 170 239 52 68 89 141 100 202 l7 37 78 0 79 0 26 -82z"/>
<path d="M1520 1952 c-119 -40 -190 -89 -190 -132 0 -23 5 -31 25 -36 17 -4
32 -1 43 9 9 8 46 30 82 48 58 29 76 33 167 37 116 5 174 -9 243 -59 46 -33
86 -36 104 -6 16 25 -1 46 -70 87 -90 54 -120 62 -239 66 -88 3 -121 0 -165
-14z"/>
<path d="M1582 1719 c-24 -12 -46 -28 -49 -35 -4 -10 -25 -14 -72 -14 -36 0
-73 -4 -80 -9 -19 -12 -27 -125 -12 -163 10 -27 13 -28 85 -28 55 0 75 -4 79
-15 4 -8 25 -24 48 -36 61 -31 135 -23 188 19 35 28 48 32 99 32 79 0 92 15
92 103 0 86 -11 97 -94 97 -46 0 -67 4 -77 16 -22 26 -86 54 -126 54 -21 0
-58 -10 -81 -21z m111 -81 c12 -6 32 -22 44 -35 18 -19 32 -23 78 -23 30 0 55
-4 55 -10 0 -5 -26 -10 -57 -10 -52 0 -59 -3 -89 -35 -23 -25 -40 -35 -62 -35
-22 0 -40 10 -63 35 -31 32 -38 35 -91 35 -32 0 -58 4 -58 10 0 6 24 10 54 10
49 0 59 4 93 35 40 37 61 42 96 23z"/>
<path d="M1433 1139 c-10 -10 -13 -78 -13 -269 0 -190 3 -260 13 -272 41 -51
401 -52 453 -1 11 12 14 62 14 267 0 302 3 293 -91 280 -79 -10 -213 -10 -299
0 -49 6 -68 5 -77 -5z m222 -94 c39 0 89 4 113 8 l42 9 -2 -204 -3 -203 -72
-8 c-40 -5 -106 -5 -145 0 l-73 8 -3 190 c-1 104 0 195 2 202 4 9 16 10 38 6
18 -4 65 -7 103 -8z"/>
<path d="M1603 408 c-34 -4 -71 -11 -82 -17 -11 -6 -27 -11 -35 -11 -25 0
-114 -59 -121 -81 -8 -26 2 -56 22 -63 10 -4 36 5 63 22 77 48 138 67 215 67
85 0 136 -15 199 -56 40 -27 51 -30 72 -21 40 19 32 57 -22 94 -76 54 -195 79
-311 66z"/>
<path d="M2492 2838 c-9 -9 -12 -116 -12 -420 l0 -408 -37 -19 c-55 -28 -139
-116 -169 -176 -14 -29 -29 -81 -34 -116 -5 -35 -10 -388 -10 -784 0 -636 2
-723 16 -743 l15 -22 350 0 c222 0 357 4 370 10 19 10 19 30 19 779 0 746 -1
771 -20 835 -17 53 -33 79 -80 129 -32 35 -77 72 -100 82 l-40 18 0 408 c0
357 -2 410 -16 423 -20 20 -233 23 -252 4z m178 -283 l0 -205 -50 0 -50 0 0
205 0 205 50 0 50 0 0 -205z m2 -452 l3 -158 67 -35 c85 -45 111 -70 139 -133
17 -40 24 -77 27 -154 l4 -103 -201 0 c-188 0 -201 -1 -211 -19 -14 -27 -14
-995 0 -1022 10 -18 23 -19 210 -19 l200 0 0 -110 0 -110 -290 0 -290 0 0 735
0 735 28 63 c32 69 72 108 146 143 27 12 53 29 57 36 5 7 9 79 9 161 l0 147
50 0 49 0 3 -157z m238 -1113 l0 -440 -160 0 -160 0 0 440 0 440 160 0 160 0
0 -440z"/>
<path d="M410 2367 c-14 -7 -33 -29 -43 -49 -16 -32 -17 -42 -6 -79 7 -22 21
-46 31 -53 28 -17 24 -130 -16 -426 -32 -244 -77 -354 -180 -446 -67 -58 -140
-157 -171 -229 -23 -55 -31 -180 -15 -257 6 -34 37 -126 67 -203 30 -77 82
-210 115 -295 33 -85 65 -161 71 -167 7 -10 83 -13 318 -13 l308 0 15 27 c14
28 41 95 116 283 23 58 53 132 67 165 90 213 86 408 -11 560 -20 30 -71 90
-115 132 -67 67 -82 88 -104 148 -45 123 -78 287 -96 475 -6 58 -13 131 -17
163 -7 56 -6 59 24 87 56 51 52 132 -10 170 -29 18 -51 20 -178 20 -95 0 -154
-5 -170 -13z m298 -94 c2 -7 -3 -13 -11 -13 -51 0 -58 -67 -32 -306 32 -300
88 -526 152 -612 15 -20 63 -75 107 -122 86 -92 120 -153 137 -246 17 -91 4
-149 -83 -367 -44 -111 -85 -215 -91 -232 -6 -16 -19 -54 -30 -82 l-21 -53
-255 0 -256 1 -98 247 c-113 287 -142 389 -133 473 11 112 47 171 187 309 70
69 79 82 108 165 60 167 94 360 111 630 11 169 9 178 -38 196 -13 5 -20 14
-17 19 10 16 257 9 263 -7z"/>
<path d="M428 1156 c-129 -43 -205 -120 -215 -219 -8 -74 14 -130 70 -184 184
-181 535 -139 647 77 19 37 17 129 -5 170 -34 65 -67 99 -122 126 -126 59
-257 70 -375 30z m272 -83 c90 -28 160 -101 160 -163 0 -54 -48 -106 -135
-147 -52 -24 -72 -28 -150 -27 -102 0 -166 23 -222 76 -64 62 -68 125 -10 190
75 85 224 114 357 71z"/>
</g>
</svg>
